<svg xmlns="http://www.w3.org/2000/svg" width="1000" height="555" viewBox="0 0 1000 555" role="img" aria-label="E2 / Raspberry Pi AI Camera"><defs><marker id="arrow" viewBox="0 0 10 10" refX="5" refY="5" markerWidth="5" markerHeight="5" orient="auto-start-reverse"><path d="M10 0L0 5L10 10" fill="none" stroke="#246c80"/></marker></defs><style>text{font-family:Arial,sans-serif;fill:#27424f}.title{font-size:22px;font-weight:600}.label{font-size:14px}.small{font-size:12px;fill:#657c86}.part{fill:#edf3f6;stroke:#3b6273;stroke-width:1.3}.hole{fill:white;stroke:#3b6273;stroke-width:1}.edge{stroke:#3b6273;stroke-width:1;fill:none}.ext{stroke:#8da5af;stroke-width:.8}.dim{stroke:#246c80;stroke-width:1;marker-start:url(#arrow);marker-end:url(#arrow)}.dash{fill:none;stroke:#b38838;stroke-dasharray:5 4;stroke-width:1}</style><rect width="100%" height="100%" fill="white"/><text x="35" y="40" class="title" text-anchor="start">E2 / Raspberry Pi AI Camera</text><text x="35" y="65" class="small" text-anchor="start">Physical specification: Raspberry Pi AI Camera product brief, page 4</text><rect x="120" y="160" width="250" height="238.61999999999998" rx="20" class="part"/><circle cx="140" cy="180" r="11" class="hole"/><circle cx="140" cy="305" r="11" class="hole"/><circle cx="350" cy="180" r="11" class="hole"/><circle cx="350" cy="305" r="11" class="hole"/><rect x="181" y="198.75" width="128" height="195" rx="0" class="part"/><rect x="185" y="242.5" width="120" height="125" rx="0" class="part"/><circle cx="245" cy="305" r="28.75" class="hole"/><circle cx="245" cy="305" r="23.75" class="hole"/><rect x="146.95" y="341.52" width="196.1" height="57.1" rx="0" class="dash"/><line x1="120" y1="160" x2="120" y2="120" class="ext"/><line x1="370" y1="160" x2="370" y2="120" class="ext"/><line x1="120" y1="115" x2="370" y2="115" class="dim"/><text x="245" y="107" class="label" text-anchor="middle">25</text><line x1="120" y1="160" x2="85" y2="160" class="ext"/><line x1="120" y1="398.62" x2="85" y2="398.62" class="ext"/><line x1="80" y1="160" x2="80" y2="398.62" class="dim"/><text class="label" transform="translate(70,279.31) rotate(-90)" text-anchor="middle">23.862 reference</text><text x="470" y="155" class="label" text-anchor="start">Nominal envelope: 25 × 24 × 11.9</text><text x="470" y="191" class="label" text-anchor="start">PCB: 1.12 thick; 4 × Ø2.2 holes</text><text x="470" y="227" class="label" text-anchor="start">Hole pitch: 21 × 12.5; first row 2 from edge</text><text x="470" y="263" class="label" text-anchor="start">Lens axis: 14.5 from the outer board edge</text><text x="470" y="299" class="label" text-anchor="start">Lens barrel Ø5.75; aperture Ø4.75</text><text x="470" y="344" class="label" text-anchor="start">Dashed: back-side CSI connector</text><text x="470" y="376" class="label" text-anchor="start">19.61 wide × 5.71 deep × 2.75 high</text><text x="470" y="408" class="label" text-anchor="start">Cable exits toward the acrylic plate centre.</text><text x="120" y="449" class="small" text-anchor="start">LENS-SIDE VIEW · dashed connector is on reverse</text><text x="120" y="480" class="small" text-anchor="start">Manufacturer reference dimensions; component details are schematic.</text><line x1="35" y1="513" x2="965" y2="513" class="ext"/><text x="35" y="535" class="small" text-anchor="start">BEECAM · REV 1.0 · DIMENSIONS mm · DO NOT SCALE</text><text x="965" y="535" class="small" text-anchor="end">REFERENCE ONLY</text></svg>