<svg xmlns="http://www.w3.org/2000/svg" width="1000" height="930" viewBox="0 0 1000 930" role="img" aria-label="04 / Internal electronics assembly"><defs><marker id="a" viewBox="0 0 10 10" refX="5" refY="5" markerWidth="5" markerHeight="5" orient="auto-start-reverse"><path d="M10 0L0 5L10 10" fill="none" stroke="#28758a"/></marker></defs><style>text{font-family:Arial,sans-serif;fill:#25424f}.title{font-size:22px;font-weight:bold}.label{font-size:14px}.small{font-size:12px;fill:#59717d}.edge{stroke:#466571;stroke-width:1.2;fill:none}.ext{stroke:#8da5af;stroke-width:.8}.dim{stroke:#28758a;stroke-width:1;marker-start:url(#a);marker-end:url(#a)}</style><rect width="100%" height="100%" fill="white"/><text x="35" y="40" class="title" text-anchor="start">04 / Internal electronics assembly</text><text x="35" y="67" class="small" text-anchor="start">Board envelopes, acrylic mounting datums and installed standoff lengths</text><text x="60" y="110" class="label" text-anchor="start">ACRYLIC PLAN · electronics side</text><text x="590" y="110" class="label" text-anchor="start">STACK SECTION · not to scale</text><rect x="86.52499999999998" y="151.52499999999998" width="346.95000000000005" height="346.95000000000005" rx="12" fill="#edf5f6" stroke="#466571"/><rect x="143.34190999999998" y="294.03424" width="81" height="175.5" rx="4" fill="#badcc7" stroke="#466571"/><text x="183.84190999999998" y="381.78424" class="small" text-anchor="middle">Pi / Witty</text><rect x="102.11290999999999" y="311.14684" width="62.0649" height="141.2748" rx="4" fill="#efc5cd" stroke="#466571"/><text x="133.14535999999998" y="381.78424" class="small" text-anchor="middle">HAT</text><rect x="147.39191" y="298.08424" width="72.9" height="72.9" rx="4" fill="#c3dceb" stroke="#466571"/><text x="183.84190999999998" y="334.53424" class="small" text-anchor="middle">OLED</text><rect x="323.81369" y="178.89030999999997" width="68.58" height="48.00600000000001" rx="4" fill="#c6d0d4" stroke="#466571"/><text x="358.10369000000003" y="202.89330999999999" class="small" text-anchor="middle">RTC</text><rect x="226.25" y="410.5090529875" width="67.5" height="64.4274" rx="4" fill="#badcc7" stroke="#466571"/><text x="260" y="442.72275298750003" class="small" text-anchor="middle">Camera</text><circle cx="159.22169" cy="224.22169" r="42.862500000000004" fill="white" stroke="#466571"/><text x="159.22169" y="224.22169" class="small" text-anchor="middle">Gland</text><circle cx="224.9" cy="181.89999999999998" r="27" fill="#3b4247" stroke="#466571"/><circle cx="403.1" cy="181.89999999999998" r="27" fill="#3b4247" stroke="#466571"/><circle cx="403.1" cy="325" r="27" fill="#3b4247" stroke="#466571"/><circle cx="403.1" cy="468.1" r="27" fill="#3b4247" stroke="#466571"/><circle cx="116.89999999999998" cy="468.1" r="27" fill="#3b4247" stroke="#466571"/><line x1="86.52499999999998" y1="499" x2="86.52499999999998" y2="544" class="ext"/><line x1="433.475" y1="499" x2="433.475" y2="544" class="ext"/><line x1="86.52499999999998" y1="538" x2="433.475" y2="538" class="dim"/><text x="260" y="530" class="label" text-anchor="middle">128.499</text><text x="70" y="577" class="small" text-anchor="start">5 × Ø20 hook-and-loop pairs; pad locations approximate.</text><rect x="600" y="462" width="280" height="8" rx="3" fill="#dbe9eb" stroke="#466571"/><text x="770" y="456" class="small" text-anchor="start">3 mm acrylic</text><rect x="600" y="390" width="160" height="8" rx="3" fill="#badcc7" stroke="#466571"/><text x="770" y="384" class="small" text-anchor="start">Pi Zero 2 W</text><rect x="600" y="267" width="160" height="8" rx="3" fill="#c6d0d4" stroke="#466571"/><text x="770" y="261" class="small" text-anchor="start">Witty Pi 4 Mini</text><rect x="600" y="288" width="115" height="8" rx="3" fill="#efc5cd" stroke="#466571"/><text x="770" y="282" class="small" text-anchor="start">Qwiic HAT</text><rect x="600" y="212" width="95" height="8" rx="3" fill="#c3dceb" stroke="#466571"/><text x="770" y="206" class="small" text-anchor="start">OLED</text><rect x="615" y="398" width="8" height="64" rx="3" fill="#dbc78b" stroke="#466571"/><rect x="745" y="398" width="8" height="64" rx="3" fill="#dbc78b" stroke="#466571"/><rect x="745" y="275" width="8" height="115" rx="3" fill="#dbc78b" stroke="#466571"/><rect x="745" y="250" width="8" height="17" rx="3" fill="#dbc78b" stroke="#466571"/><rect x="615" y="373" width="8" height="17" rx="3" fill="#dbc78b" stroke="#466571"/><rect x="615" y="220" width="8" height="47" rx="3" fill="#dbc78b" stroke="#466571"/><line x1="600" y1="398" x2="575" y2="398" class="ext"/><line x1="600" y1="462" x2="575" y2="462" class="ext"/><line x1="569" y1="398" x2="569" y2="462" class="dim"/><text class="label" transform="translate(559 430) rotate(-90)" text-anchor="middle">15</text><line x1="600" y1="275" x2="575" y2="275" class="ext"/><line x1="600" y1="390" x2="575" y2="390" class="ext"/><line x1="569" y1="275" x2="569" y2="390" class="dim"/><text class="label" transform="translate(559 332.5) rotate(-90)" text-anchor="middle">20</text><line x1="600" y1="220" x2="575" y2="220" class="ext"/><line x1="600" y1="267" x2="575" y2="267" class="ext"/><line x1="569" y1="220" x2="569" y2="267" class="dim"/><text class="label" transform="translate(559 243.5) rotate(-90)" text-anchor="middle">10</text><text x="590" y="520" class="small" text-anchor="start">5 mm retainers: Pi at OLED end; Witty at other end.</text><text x="590" y="550" class="small" text-anchor="start">RTC standoffs: 10 mm body length.</text><line x1="50" y1="609" x2="950" y2="609" class="ext"/><text x="60" y="644" class="label" text-anchor="start">CONNECTIONS</text><text x="80" y="680" class="label" text-anchor="start">Pi GPIO → 2×20 female header → Qwiic HAT → Witty Pi</text><text x="80" y="712" class="label" text-anchor="start">Qwiic HAT → 200 mm JST SH → DS3231 + CR1220</text><text x="80" y="744" class="label" text-anchor="start">Qwiic HAT → 200 mm JST SH → soldered OLED pins</text><text x="80" y="776" class="label" text-anchor="start">AI Camera → orange CSI adapter ribbon → Pi Zero</text><text x="80" y="830" class="small" text-anchor="start">OLED order (screen side, pin edge above): black · red · yellow · blue</text><text x="80" y="857" class="small" text-anchor="start">2 cables. HELIFOUNER 242-piece brass kit; Kadrick 660-piece M2 kit.</text><line x1="35" y1="888" x2="965" y2="888" class="ext"/><text x="35" y="910" class="small" text-anchor="start">BEECAM · REV 1.0 · DIMENSIONS mm · REFERENCE ONLY</text><text x="965" y="910" class="small" text-anchor="end">NOT A FABRICATION DRAWING</text></svg>