<svg xmlns="http://www.w3.org/2000/svg" width="900" height="370" viewBox="0 0 900 370" role="img" aria-label="H1 / Supported corner bracket"><defs><marker id="arrow" viewBox="0 0 10 10" refX="5" refY="5" markerWidth="5" markerHeight="5" orient="auto-start-reverse"><path d="M 10 0 L 0 5 L 10 10" fill="none" stroke="#246c80" stroke-width="1.5"/></marker></defs><style>text{font-family:Arial,sans-serif;fill:#27424f}.title{font-size:22px;font-weight:600}.small{font-size:12px;fill:#667e89}.text{font-size:14px}.caption{font-size:13px;letter-spacing:1px;fill:#5f7885}.line{stroke:#587785;stroke-width:1.3;fill:none}.part{stroke:#3b6273;stroke-width:1.5;fill:#edf3f6}.ext{stroke:#8da5af;stroke-width:.8}.dim{stroke:#246c80;stroke-width:1;marker-start:url(#arrow);marker-end:url(#arrow)}.adjustable{stroke:#8c7029;stroke-dasharray:6 4;stroke-width:1.5;fill:#fff7df}.hole{stroke:#466e80;stroke-width:1.5;fill:white}</style><rect width="100%" height="100%" fill="white"/><text class="title" x="35" y="39" text-anchor="start">H1 / Supported corner bracket</text><text class="small" x="35" y="63" text-anchor="start">14057 · 80/20 catalogue dimensions · schematic geometry</text><path class="part" d="M110,130v129.2h129.2v-10H120V130Z"/><path class="line" d="M120,140L234.2,249.2"/><line class="ext" x1="110" y1="130" x2="110" y2="107"/><line class="ext" x1="239.2" y1="130" x2="239.2" y2="107"/><line class="dim" x1="110" y1="100" x2="239.2" y2="100"/><text class="text" x="174.6" y="91" text-anchor="middle">38</text><line class="ext" x1="110" y1="130" x2="84" y2="130"/><line class="ext" x1="110" y1="259.2" x2="84" y2="259.2"/><line class="dim" x1="77" y1="130" x2="77" y2="259.2"/><text class="text" transform="translate(67,194.6) rotate(-90)" text-anchor="middle">38</text><text class="caption" x="110" y="286.2" text-anchor="start">SIDE ENVELOPE</text><rect class="part" x="445" y="133" width="61.199999999999996" height="129.2"/><line class="ext" x1="445" y1="133" x2="445" y2="113"/><line class="ext" x1="506.2" y1="133" x2="506.2" y2="113"/><line class="dim" x1="445" y1="106" x2="506.2" y2="106"/><text class="text" x="475.6" y="97" text-anchor="middle">18</text><text class="text" x="537" y="158" text-anchor="start">4 holes total</text><text class="text" x="537" y="183" text-anchor="start">2 per mounting face</text><text class="text" x="537" y="208" text-anchor="start">Single support</text><text class="small" x="537" y="252" text-anchor="start">Hole geometry and casting details omitted.</text><text class="small" x="537" y="274" text-anchor="start">See linked manufacturer CAD before fabrication.</text><line class="ext" x1="35" y1="327" x2="865" y2="327"/><text class="small" x="35" y="349" text-anchor="start">BEECAM · FRAME REV 1.0 · ALL DIMENSIONS mm · DO NOT SCALE</text><text class="small" x="865" y="349" text-anchor="end">REFERENCE DRAWING</text></svg>