<svg xmlns="http://www.w3.org/2000/svg" width="900" height="370" viewBox="0 0 900 370" role="img" aria-label="H5 / Slide-in T-nut block"><defs><marker id="arrow" viewBox="0 0 10 10" refX="5" refY="5" markerWidth="5" markerHeight="5" orient="auto-start-reverse"><path d="M 10 0 L 0 5 L 10 10" fill="none" stroke="#246c80" stroke-width="1.5"/></marker></defs><style>text{font-family:Arial,sans-serif;fill:#27424f}.title{font-size:22px;font-weight:600}.small{font-size:12px;fill:#667e89}.text{font-size:14px}.caption{font-size:13px;letter-spacing:1px;fill:#5f7885}.line{stroke:#587785;stroke-width:1.3;fill:none}.part{stroke:#3b6273;stroke-width:1.5;fill:#edf3f6}.ext{stroke:#8da5af;stroke-width:.8}.dim{stroke:#246c80;stroke-width:1;marker-start:url(#arrow);marker-end:url(#arrow)}.pending{stroke:#8c7029;stroke-dasharray:6 4;stroke-width:1.5;fill:#fff7df}.hole{stroke:#466e80;stroke-width:1.5;fill:white}</style><rect width="100%" height="100%" fill="white"/><text class="title" x="35" y="39" text-anchor="start">H5 / Slide-in T-nut block</text><text class="small" x="35" y="63" text-anchor="start">14122 · 80/20 catalogue dimensions · schematic geometry</text><rect class="part" x="120" y="118" width="135" height="135"/><circle class="hole" cx="187.5" cy="185.5" r="37.5"/><line class="ext" x1="120" y1="118" x2="120" y2="96"/><line class="ext" x1="255" y1="118" x2="255" y2="96"/><line class="dim" x1="120" y1="89" x2="255" y2="89"/><text class="text" x="187.5" y="80" text-anchor="middle">9</text><line class="ext" x1="120" y1="118" x2="90" y2="118"/><line class="ext" x1="120" y1="253" x2="90" y2="253"/><line class="dim" x1="83" y1="118" x2="83" y2="253"/><text class="text" transform="translate(73,185.5) rotate(-90)" text-anchor="middle">9</text><rect class="part" x="390" y="118" width="135" height="45"/><line class="ext" x1="525" y1="118" x2="565" y2="118"/><line class="ext" x1="525" y1="163" x2="565" y2="163"/><line class="dim" x1="558" y1="118" x2="558" y2="163"/><text class="text" transform="translate(548,140.5) rotate(-90)" text-anchor="middle">3</text><text class="caption" x="120" y="287" text-anchor="start">FRONT</text><text class="caption" x="390" y="200" text-anchor="start">SIDE</text><text class="text" x="618" y="166" text-anchor="start">M5 × 0.8</text><text class="text" x="618" y="193" text-anchor="start">Through thread</text><line class="ext" x1="35" y1="327" x2="865" y2="327"/><text class="small" x="35" y="349" text-anchor="start">BEECAM · FRAME REV 0.1 · ALL DIMENSIONS mm · DO NOT SCALE</text><text class="small" x="865" y="349" text-anchor="end">REFERENCE DRAWING</text></svg>