<svg xmlns="http://www.w3.org/2000/svg" width="900" height="370" viewBox="0 0 900 370" role="img" aria-label="H3 / Square joining plate"><defs><marker id="arrow" viewBox="0 0 10 10" refX="5" refY="5" markerWidth="5" markerHeight="5" orient="auto-start-reverse"><path d="M 10 0 L 0 5 L 10 10" fill="none" stroke="#246c80" stroke-width="1.5"/></marker></defs><style>text{font-family:Arial,sans-serif;fill:#27424f}.title{font-size:22px;font-weight:600}.small{font-size:12px;fill:#667e89}.text{font-size:14px}.caption{font-size:13px;letter-spacing:1px;fill:#5f7885}.line{stroke:#587785;stroke-width:1.3;fill:none}.part{stroke:#3b6273;stroke-width:1.5;fill:#edf3f6}.ext{stroke:#8da5af;stroke-width:.8}.dim{stroke:#246c80;stroke-width:1;marker-start:url(#arrow);marker-end:url(#arrow)}.pending{stroke:#8c7029;stroke-dasharray:6 4;stroke-width:1.5;fill:#fff7df}.hole{stroke:#466e80;stroke-width:1.5;fill:white}</style><rect width="100%" height="100%" fill="white"/><text class="title" x="35" y="39" text-anchor="start">H3 / Square joining plate</text><text class="small" x="35" y="63" text-anchor="start">20-4167 · 80/20 catalogue dimensions · schematic geometry</text><rect class="part" x="110" y="110" width="144" height="144"/><circle class="hole" cx="146" cy="146" r="10.008"/><circle class="hole" cx="146" cy="218" r="10.008"/><circle class="hole" cx="218" cy="146" r="10.008"/><circle class="hole" cx="218" cy="218" r="10.008"/><line class="ext" x1="110" y1="110" x2="110" y2="92"/><line class="ext" x1="254" y1="110" x2="254" y2="92"/><line class="dim" x1="110" y1="85" x2="254" y2="85"/><text class="text" x="182" y="76" text-anchor="middle">40</text><line class="ext" x1="110" y1="110" x2="83" y2="110"/><line class="ext" x1="110" y1="254" x2="83" y2="254"/><line class="dim" x1="76" y1="110" x2="76" y2="254"/><text class="text" transform="translate(66,182) rotate(-90)" text-anchor="middle">40</text><line class="ext" x1="146" y1="254" x2="146" y2="289"/><line class="ext" x1="218" y1="254" x2="218" y2="289"/><line class="dim" x1="146" y1="282" x2="218" y2="282"/><text class="text" x="182" y="273" text-anchor="middle">20 centres</text><rect class="part" x="414" y="110" width="14.4" height="144"/><line class="ext" x1="414" y1="110" x2="414" y2="92"/><line class="ext" x1="428.4" y1="110" x2="428.4" y2="92"/><line class="dim" x1="414" y1="85" x2="428.4" y2="85"/><text class="text" x="421.2" y="76" text-anchor="middle">4</text><text class="text" x="508" y="145" text-anchor="start">4 × Ø5.56 through holes</text><text class="text" x="508" y="176" text-anchor="start">20 × 20 hole-centre pattern</text><text class="text" x="508" y="207" text-anchor="start">10 mm edge-to-centre offset</text><text class="small" x="508" y="258" text-anchor="start">Recommended plate hardware: M5 × 10 mm.</text><line class="ext" x1="35" y1="327" x2="865" y2="327"/><text class="small" x="35" y="349" text-anchor="start">BEECAM · FRAME REV 0.1 · ALL DIMENSIONS mm · DO NOT SCALE</text><text class="small" x="865" y="349" text-anchor="end">REFERENCE DRAWING</text></svg>