<svg xmlns="http://www.w3.org/2000/svg" width="900" height="370" viewBox="0 0 900 370" role="img" aria-label="H4 / Button-head screw"><defs><marker id="arrow" viewBox="0 0 10 10" refX="5" refY="5" markerWidth="5" markerHeight="5" orient="auto-start-reverse"><path d="M 10 0 L 0 5 L 10 10" fill="none" stroke="#246c80" stroke-width="1.5"/></marker></defs><style>text{font-family:Arial,sans-serif;fill:#27424f}.title{font-size:22px;font-weight:600}.small{font-size:12px;fill:#667e89}.text{font-size:14px}.caption{font-size:13px;letter-spacing:1px;fill:#5f7885}.line{stroke:#587785;stroke-width:1.3;fill:none}.part{stroke:#3b6273;stroke-width:1.5;fill:#edf3f6}.ext{stroke:#8da5af;stroke-width:.8}.dim{stroke:#246c80;stroke-width:1;marker-start:url(#arrow);marker-end:url(#arrow)}.pending{stroke:#8c7029;stroke-dasharray:6 4;stroke-width:1.5;fill:#fff7df}.hole{stroke:#466e80;stroke-width:1.5;fill:white}</style><rect width="100%" height="100%" fill="white"/><text class="title" x="35" y="39" text-anchor="start">H4 / Button-head screw</text><text class="small" x="35" y="63" text-anchor="start">11-5308 · 80/20 catalogue dimensions · schematic geometry</text><rect class="part" x="170" y="163" width="160" height="50"/><path class="part" d="M170 139Q117 139 117 188Q117 237 170 237Z"/><line class="ext" x1="183" y1="166" x2="174" y2="210"/><line class="ext" x1="195" y1="166" x2="186" y2="210"/><line class="ext" x1="207" y1="166" x2="198" y2="210"/><line class="ext" x1="219" y1="166" x2="210" y2="210"/><line class="ext" x1="231" y1="166" x2="222" y2="210"/><line class="ext" x1="243" y1="166" x2="234" y2="210"/><line class="ext" x1="255" y1="166" x2="246" y2="210"/><line class="ext" x1="267" y1="166" x2="258" y2="210"/><line class="ext" x1="279" y1="166" x2="270" y2="210"/><line class="ext" x1="291" y1="166" x2="282" y2="210"/><line class="ext" x1="303" y1="166" x2="294" y2="210"/><line class="ext" x1="315" y1="166" x2="306" y2="210"/><line class="ext" x1="327" y1="166" x2="318" y2="210"/><line class="ext" x1="170" y1="163" x2="170" y2="126"/><line class="ext" x1="330" y1="163" x2="330" y2="126"/><line class="dim" x1="170" y1="119" x2="330" y2="119"/><text class="text" x="250" y="110" text-anchor="middle">8 (under head)</text><line class="ext" x1="117" y1="139" x2="87" y2="139"/><line class="ext" x1="117" y1="237" x2="87" y2="237"/><line class="dim" x1="80" y1="139" x2="80" y2="237"/><text class="text" transform="translate(70,188) rotate(-90)" text-anchor="middle">Ø9.32 head</text><text class="text" x="445" y="159" text-anchor="start">M5 × 0.8 thread</text><text class="text" x="445" y="192" text-anchor="start">Head height: 2.63</text><text class="text" x="445" y="225" text-anchor="start">Hex drive: 3</text><text class="small" x="445" y="265" text-anchor="start">Thread and head profiles are schematic.</text><line class="ext" x1="35" y1="327" x2="865" y2="327"/><text class="small" x="35" y="349" text-anchor="start">BEECAM · FRAME REV 0.1 · ALL DIMENSIONS mm · DO NOT SCALE</text><text class="small" x="865" y="349" text-anchor="end">REFERENCE DRAWING</text></svg>