<svg xmlns="http://www.w3.org/2000/svg" width="1000" height="640" viewBox="0 0 1000 640" role="img" aria-label="E13 / Frienda 2×20 extra-tall stacking header"><defs><marker id="a" viewBox="0 0 10 10" refX="5" refY="5" markerWidth="5" markerHeight="5" orient="auto-start-reverse"><path d="M10 0L0 5L10 10" fill="none" stroke="#28758a"/></marker></defs><style>text{font-family:Arial,sans-serif;fill:#25424f}.title{font-size:22px;font-weight:bold}.label{font-size:14px}.small{font-size:12px;fill:#59717d}.edge{stroke:#466571;stroke-width:1.2;fill:none}.ext{stroke:#8da5af;stroke-width:.8}.dim{stroke:#28758a;stroke-width:1;marker-start:url(#a);marker-end:url(#a)}</style><rect width="100%" height="100%" fill="white"/><text x="35" y="40" class="title" text-anchor="start">E13 / Frienda 2×20 extra-tall stacking header</text><text x="35" y="67" class="small" text-anchor="start">Product dimension diagram</text><text x="115" y="110" class="small" text-anchor="start">SOCKET PLAN</text><rect x="115" y="170" width="255" height="25" rx="1" fill="#394950" stroke="#466571"/><rect x="119.85000000000001" y="174.15" width="4" height="4" rx="0" fill="#d0b761" stroke="#466571"/><rect x="132.55" y="174.15" width="4" height="4" rx="0" fill="#d0b761" stroke="#466571"/><rect x="145.25" y="174.15" width="4" height="4" rx="0" fill="#d0b761" stroke="#466571"/><rect x="157.95" y="174.15" width="4" height="4" rx="0" fill="#d0b761" stroke="#466571"/><rect x="170.64999999999998" y="174.15" width="4" height="4" rx="0" fill="#d0b761" stroke="#466571"/><rect x="183.35" y="174.15" width="4" height="4" rx="0" fill="#d0b761" stroke="#466571"/><rect x="196.05" y="174.15" width="4" height="4" rx="0" fill="#d0b761" stroke="#466571"/><rect x="208.75" y="174.15" width="4" height="4" rx="0" fill="#d0b761" stroke="#466571"/><rect x="221.45" y="174.15" width="4" height="4" rx="0" fill="#d0b761" stroke="#466571"/><rect x="234.15" y="174.15" width="4" height="4" rx="0" fill="#d0b761" stroke="#466571"/><rect x="246.85" y="174.15" width="4" height="4" rx="0" fill="#d0b761" stroke="#466571"/><rect x="259.55" y="174.15" width="4" height="4" rx="0" fill="#d0b761" stroke="#466571"/><rect x="272.25" y="174.15" width="4" height="4" rx="0" fill="#d0b761" stroke="#466571"/><rect x="284.95" y="174.15" width="4" height="4" rx="0" fill="#d0b761" stroke="#466571"/><rect x="297.65" y="174.15" width="4" height="4" rx="0" fill="#d0b761" stroke="#466571"/><rect x="310.35" y="174.15" width="4" height="4" rx="0" fill="#d0b761" stroke="#466571"/><rect x="323.05" y="174.15" width="4" height="4" rx="0" fill="#d0b761" stroke="#466571"/><rect x="335.75" y="174.15" width="4" height="4" rx="0" fill="#d0b761" stroke="#466571"/><rect x="348.45" y="174.15" width="4" height="4" rx="0" fill="#d0b761" stroke="#466571"/><rect x="361.15" y="174.15" width="4" height="4" rx="0" fill="#d0b761" stroke="#466571"/><rect x="119.85000000000001" y="186.85" width="4" height="4" rx="0" fill="#d0b761" stroke="#466571"/><rect x="132.55" y="186.85" width="4" height="4" rx="0" fill="#d0b761" stroke="#466571"/><rect x="145.25" y="186.85" width="4" height="4" rx="0" fill="#d0b761" stroke="#466571"/><rect x="157.95" y="186.85" width="4" height="4" rx="0" fill="#d0b761" stroke="#466571"/><rect x="170.64999999999998" y="186.85" width="4" height="4" rx="0" fill="#d0b761" stroke="#466571"/><rect x="183.35" y="186.85" width="4" height="4" rx="0" fill="#d0b761" stroke="#466571"/><rect x="196.05" y="186.85" width="4" height="4" rx="0" fill="#d0b761" stroke="#466571"/><rect x="208.75" y="186.85" width="4" height="4" rx="0" fill="#d0b761" stroke="#466571"/><rect x="221.45" y="186.85" width="4" height="4" rx="0" fill="#d0b761" stroke="#466571"/><rect x="234.15" y="186.85" width="4" height="4" rx="0" fill="#d0b761" stroke="#466571"/><rect x="246.85" y="186.85" width="4" height="4" rx="0" fill="#d0b761" stroke="#466571"/><rect x="259.55" y="186.85" width="4" height="4" rx="0" fill="#d0b761" stroke="#466571"/><rect x="272.25" y="186.85" width="4" height="4" rx="0" fill="#d0b761" stroke="#466571"/><rect x="284.95" y="186.85" width="4" height="4" rx="0" fill="#d0b761" stroke="#466571"/><rect x="297.65" y="186.85" width="4" height="4" rx="0" fill="#d0b761" stroke="#466571"/><rect x="310.35" y="186.85" width="4" height="4" rx="0" fill="#d0b761" stroke="#466571"/><rect x="323.05" y="186.85" width="4" height="4" rx="0" fill="#d0b761" stroke="#466571"/><rect x="335.75" y="186.85" width="4" height="4" rx="0" fill="#d0b761" stroke="#466571"/><rect x="348.45" y="186.85" width="4" height="4" rx="0" fill="#d0b761" stroke="#466571"/><rect x="361.15" y="186.85" width="4" height="4" rx="0" fill="#d0b761" stroke="#466571"/><line x1="115" y1="170" x2="115" y2="146" class="ext"/><line x1="370" y1="170" x2="370" y2="146" class="ext"/><line x1="115" y1="140" x2="370" y2="140" class="dim"/><text x="242.5" y="132" class="label" text-anchor="middle">51</text><line x1="115" y1="170" x2="91" y2="170" class="ext"/><line x1="115" y1="195" x2="91" y2="195" class="ext"/><line x1="85" y1="170" x2="85" y2="195" class="dim"/><text class="label" transform="translate(75 182.5) rotate(-90)" text-anchor="middle">5</text><text x="115" y="263" class="small" text-anchor="start">SIDE VIEW</text><rect x="115" y="300" width="255" height="55" rx="1" fill="#394950" stroke="#466571"/><rect x="120.35000000000001" y="355" width="3" height="60" rx="0" fill="#d0b761" stroke="#466571"/><rect x="133.05" y="355" width="3" height="60" rx="0" fill="#d0b761" stroke="#466571"/><rect x="145.75" y="355" width="3" height="60" rx="0" fill="#d0b761" stroke="#466571"/><rect x="158.45" y="355" width="3" height="60" rx="0" fill="#d0b761" stroke="#466571"/><rect x="171.14999999999998" y="355" width="3" height="60" rx="0" fill="#d0b761" stroke="#466571"/><rect x="183.85" y="355" width="3" height="60" rx="0" fill="#d0b761" stroke="#466571"/><rect x="196.55" y="355" width="3" height="60" rx="0" fill="#d0b761" stroke="#466571"/><rect x="209.25" y="355" width="3" height="60" rx="0" fill="#d0b761" stroke="#466571"/><rect x="221.95" y="355" width="3" height="60" rx="0" fill="#d0b761" stroke="#466571"/><rect x="234.65" y="355" width="3" height="60" rx="0" fill="#d0b761" stroke="#466571"/><rect x="247.35" y="355" width="3" height="60" rx="0" fill="#d0b761" stroke="#466571"/><rect x="260.05" y="355" width="3" height="60" rx="0" fill="#d0b761" stroke="#466571"/><rect x="272.75" y="355" width="3" height="60" rx="0" fill="#d0b761" stroke="#466571"/><rect x="285.45" y="355" width="3" height="60" rx="0" fill="#d0b761" stroke="#466571"/><rect x="298.15" y="355" width="3" height="60" rx="0" fill="#d0b761" stroke="#466571"/><rect x="310.85" y="355" width="3" height="60" rx="0" fill="#d0b761" stroke="#466571"/><rect x="323.55" y="355" width="3" height="60" rx="0" fill="#d0b761" stroke="#466571"/><rect x="336.25" y="355" width="3" height="60" rx="0" fill="#d0b761" stroke="#466571"/><rect x="348.95" y="355" width="3" height="60" rx="0" fill="#d0b761" stroke="#466571"/><rect x="361.65" y="355" width="3" height="60" rx="0" fill="#d0b761" stroke="#466571"/><line x1="115" y1="300" x2="91" y2="300" class="ext"/><line x1="115" y1="415" x2="91" y2="415" class="ext"/><line x1="85" y1="300" x2="85" y2="415" class="dim"/><text class="label" transform="translate(75 357.5) rotate(-90)" text-anchor="middle">23 overall</text><line x1="370" y1="355" x2="416" y2="355" class="ext"/><line x1="370" y1="415" x2="416" y2="415" class="ext"/><line x1="410" y1="355" x2="410" y2="415" class="dim"/><text class="label" transform="translate(400 385) rotate(-90)" text-anchor="middle">12 pins</text><text x="490" y="150" class="label" text-anchor="start">2 rows × 20 pins · 2.54 mm pitch</text><text x="490" y="186" class="label" text-anchor="start">Pin thickness: approximately 0.6</text><text x="490" y="222" class="label" text-anchor="start">Female socket onto Pi GPIO</text><text x="490" y="258" class="label" text-anchor="start">Male pins through HAT to Witty Pi</text><text x="490" y="310" class="small" text-anchor="start">One header from an eight-pack. Female sockets fit the Pi GPIO</text><text x="490" y="331" class="small" text-anchor="start">pins; 12 mm male pins pass through the Qwiic HAT into Witty</text><text x="490" y="352" class="small" text-anchor="start">Pi. Overall envelope: 51 × 5 × 23 mm. Pin spacing: 2.54 mm;</text><text x="490" y="373" class="small" text-anchor="start">pin thickness: approximately 0.6 mm.</text><line x1="35" y1="598" x2="965" y2="598" class="ext"/><text x="35" y="620" class="small" text-anchor="start">BEECAM · REV 1.0 · DIMENSIONS mm · REFERENCE ONLY</text><text x="965" y="620" class="small" text-anchor="end">NOT A FABRICATION DRAWING</text></svg>