0
SECTION
2
HEADER
9
$ACADVER
1
AC1015
9
$INSUNITS
70
4
9
$MEASUREMENT
70
1
0
ENDSEC
0
SECTION
2
ENTITIES
999
Source drawing notice: SOLIDWORKS Educational Product. For Instructional Use Only.
0
LINE
100
AcDbEntity
8
CUT
100
AcDbLine
10
255.695
20
145
30
0
11
350
21
145
31
0
0
LINE
100
AcDbEntity
8
CUT
100
AcDbLine
10
0
20
300
30
0
11
420
21
300
31
0
0
LINE
100
AcDbEntity
8
CUT
100
AcDbLine
10
0
20
300
30
0
11
0
21
0
31
0
0
LINE
100
AcDbEntity
8
CUT
100
AcDbLine
10
0
20
0
30
0
11
420
21
0
31
0
0
LINE
100
AcDbEntity
8
CUT
100
AcDbLine
10
420
20
300
30
0
11
420
21
0
31
0
0
LINE
100
AcDbEntity
8
CUT
100
AcDbLine
10
350
20
145
30
0
11
350
21
130
31
0
0
LINE
100
AcDbEntity
8
CUT
100
AcDbLine
10
350
20
130
30
0
11
420
21
130
31
0
0
LINE
100
AcDbEntity
8
CUT
100
AcDbLine
10
164.305
20
145
30
0
11
70
21
145
31
0
0
LINE
100
AcDbEntity
8
CUT
100
AcDbLine
10
70
20
145
30
0
11
70
21
130
31
0
0
LINE
100
AcDbEntity
8
CUT
100
AcDbLine
10
70
20
130
30
0
11
0
21
130
31
0
0
CIRCLE
100
AcDbEntity
8
CUT
100
AcDbCircle
10
210
20
145
30
0
40
45.695
0
CIRCLE
100
AcDbEntity
8
CUT
100
AcDbCircle
10
10
20
290
30
0
40
2.75
0
CIRCLE
100
AcDbEntity
8
CUT
100
AcDbCircle
10
10
20
140
30
0
40
2.75
0
CIRCLE
100
AcDbEntity
8
CUT
100
AcDbCircle
10
10
20
10
30
0
40
2.75
0
CIRCLE
100
AcDbEntity
8
CUT
100
AcDbCircle
10
10
20
120
30
0
40
2.75
0
CIRCLE
100
AcDbEntity
8
CUT
100
AcDbCircle
10
410
20
290
30
0
40
2.75
0
CIRCLE
100
AcDbEntity
8
CUT
100
AcDbCircle
10
410
20
140
30
0
40
2.75
0
CIRCLE
100
AcDbEntity
8
CUT
100
AcDbCircle
10
410
20
120
30
0
40
2.75
0
CIRCLE
100
AcDbEntity
8
CUT
100
AcDbCircle
10
410
20
10
30
0
40
2.75
0
ENDSEC
0
EOF
