0
SECTION
2
HEADER
9
$ACADVER
1
AC1015
9
$INSUNITS
70
4
0
ENDSEC
0
SECTION
2
ENTITIES
0
LWPOLYLINE
100
AcDbEntity
8
CUT
100
AcDbPolyline
90
4
70
1
10
-50.4393
20
28.4353
42
0
10
-50.4393
20
18.4353
42
0
10
-60.4393
20
18.4353
42
0
10
-60.4393
20
28.4353
42
0
0
LWPOLYLINE
100
AcDbEntity
8
CUT
100
AcDbPolyline
90
4
70
1
10
-6.35
20
35.814
42
0
10
-6.35
20
58.674
42
0
10
6.35
20
58.674
42
0
10
6.35
20
35.814
42
0
0
LWPOLYLINE
100
AcDbEntity
8
CUT
100
AcDbPolyline
90
8
70
1
10
-64.2493
20
-60.4393
42
0.414213562373
10
-60.4393
20
-64.2493
42
0
10
60.4393
20
-64.2493
42
0.414213562373
10
64.2493
20
-60.4393
42
0
10
64.2493
20
60.4393
42
0.414213562373
10
60.4393
20
64.2493
42
0
10
-60.4393
20
64.2493
42
0.414213562373
10
-64.2493
20
60.4393
42
0
0
LWPOLYLINE
100
AcDbEntity
8
CUT
100
AcDbPolyline
90
4
70
1
10
-31.2544848393
20
-47.8308212455
42
0
10
-31.2544848393
20
-55.4508212455
42
0
10
-41.4144848393
20
-55.4508212455
42
0
10
-41.4144848393
20
-47.8308212455
42
0
0
CIRCLE
8
CUT
10
37.3253
20
-37.3253
30
0
40
15.875
0
CIRCLE
8
CUT
10
-10.5
20
53.532019625
30
0
40
1
0
CIRCLE
8
CUT
10
10.5
20
53.532019625
30
0
40
1
0
CIRCLE
8
CUT
10
-10.5
20
41.032019625
30
0
40
1
0
CIRCLE
8
CUT
10
10.5
20
41.032019625
30
0
40
1
0
CIRCLE
8
CUT
10
-46.4947
20
-38.8747
30
0
40
1.4986
0
CIRCLE
8
CUT
10
-26.1747
20
-51.5747
30
0
40
1.4986
0
CIRCLE
8
CUT
10
-26.1747
20
-38.8747
30
0
40
1.4986
0
CIRCLE
8
CUT
10
-46.4947
20
-51.5747
30
0
40
1.4986
0
CIRCLE
8
CUT
10
39.7129
20
50.0253
30
0
40
1.2446
0
CIRCLE
8
CUT
10
16.7005
20
-7.9629
30
0
40
1.2446
0
CIRCLE
8
CUT
10
16.7005
20
50.0253
30
0
40
1.2446
0
CIRCLE
8
CUT
10
39.7129
20
-7.9629
30
0
40
1.2446
0
ENDSEC
0
EOF
