0
SECTION
2
HEADER
9
$ACADVER
1
AC1015
9
$INSUNITS
70
4
0
ENDSEC
0
SECTION
2
ENTITIES
999
Source drawing notice: SOLIDWORKS Educational Product. For Instructional Use Only.
0
CIRCLE
8
CUT
10
58.5
20
58
30
0
40
2.75
0
CIRCLE
8
CUT
10
-58.5
20
58
30
0
40
2.75
0
CIRCLE
8
CUT
10
-58.5
20
-58
30
0
40
2.75
0
CIRCLE
8
CUT
10
58.5
20
-58
30
0
40
2.75
0
CIRCLE
8
CUT
10
0
20
77
30
0
40
2.75
0
CIRCLE
8
CUT
10
0
20
-77
30
0
40
2.75
0
LINE
8
CUT
10
-28.8907533163
20
-85
30
0
11
28.8907533163
21
-85
31
0
0
LINE
8
CUT
10
-31.0051806429
20
-84.5309157
30
0
11
-64.6144273267
21
-68.8466005809
31
0
0
LINE
8
CUT
10
-67.5
20
-64.3156848809
30
0
11
-67.5
21
64.3156848809
31
0
0
LINE
8
CUT
10
-64.6144273267
20
68.8466005809
30
0
11
-31.0051806429
21
84.5309157
31
0
0
LINE
8
CUT
10
-28.8907533163
20
85
30
0
11
28.8907533163
21
85
31
0
0
LINE
8
CUT
10
31.0051806429
20
84.5309157
30
0
11
64.6144273267
21
68.8466005809
31
0
0
LINE
8
CUT
10
67.5
20
-64.3156848809
30
0
11
67.5
21
64.3156848809
31
0
0
LINE
8
CUT
10
31.0051806429
20
-84.5309157
30
0
11
64.6144273267
21
-68.8466005809
31
0
0
ARC
8
CUT
10
28.8907533163
20
-80
30
0
40
5
50
270
51
295.016893478
0
ARC
8
CUT
10
-28.8907533163
20
-80
30
0
40
5
50
244.983106522
51
270
0
ARC
8
CUT
10
-62.5
20
-64.3156848809
30
0
40
5
50
180
51
244.983106522
0
ARC
8
CUT
10
-62.5
20
64.3156848809
30
0
40
5
50
115.016893478
51
180
0
ARC
8
CUT
10
62.5
20
64.3156848809
30
0
40
5
50
0
51
64.9831065219
0
ARC
8
CUT
10
62.5
20
-64.3156848809
30
0
40
5
50
295.016893478
51
0
0
ARC
8
CUT
10
28.8907533163
20
80
30
0
40
5
50
64.9831065219
51
90
0
ARC
8
CUT
10
-28.8907533163
20
80
30
0
40
5
50
90
51
115.016893478
0
ENDSEC
0
EOF
